<svg xmlns="http://www.w3.org/2000/svg" xmlns:xlink="http://www.w3.org/1999/xlink" width="48" height="49" viewBox="0 0 48 49">
    <defs>
        <ellipse id="a" cx="24" cy="24.393" rx="24" ry="24.393"/>
        <mask id="b" width="48" height="48.787" x="0" y="0" fill="#fff">
            <use xlink:href="#a"/>
        </mask>
    </defs>
    <g fill="none" fill-rule="evenodd">
        <use stroke="#74A3C7" stroke-width="2.4" mask="url(#b)" xlink:href="#a"/>
        <g fill="#74A3C7">
            <path d="M27.654 18.026c0-.244-.223-.244-.402-.244-.691 0-1.405-.022-2.119-.022-1.004 0-2.454.022-3.413.332-1.673.53-2.833 1.837-2.833 3.63 0 2.19 1.517 3.43 3.658 3.43 0 1.505.245.73.513 1.46-2.141 0-5.042.73-5.042 3.342 0 2.457 2.454 3.365 4.574 3.365 2.454 0 5.064-1.174 5.064-3.962 0-2.5-2.811-3.586-2.811-4.316 0-.796 2.164-1.15 2.164-3.873 0-.863-.246-1.859-.982-2.368.491-.066 1.629-.066 1.629-.774zm-6.537 2.61c0-.885.38-1.88 1.428-1.88 1.405 0 2.097 1.88 2.097 3.032 0 .907-.357 1.881-1.427 1.881-1.406 0-2.098-1.88-2.098-3.032zm4.752 8.787c0 1.416-1.74 2.17-2.967 2.17-1.205 0-2.766-.62-2.766-2.037 0-1.527 1.673-2.124 2.967-2.124 1.182 0 2.766.597 2.766 1.991zM33.276 20.305v-2.213H31.78v2.213H29.55v1.46h2.231v2.214h1.495v-2.213h2.23v-1.461h-2.23"/>
        </g>
    </g>
</svg>
