<svg xmlns="http://www.w3.org/2000/svg" xmlns:xlink="http://www.w3.org/1999/xlink" width="48" height="49" viewBox="0 0 48 49">
    <defs>
        <ellipse id="a" cx="24" cy="24.393" rx="24" ry="24.393"/>
        <mask id="b" width="48" height="48.787" x="0" y="0" fill="#fff">
            <use xlink:href="#a"/>
        </mask>
    </defs>
    <g fill="none" fill-rule="evenodd">
        <use stroke="#74A3C7" stroke-width="2.4" mask="url(#b)" xlink:href="#a"/>
        <g fill="#74A3C7">
            <path d="M27.103 25.465c-.97.466-2.008.73-3.09.73-1.147 0-2.03-.284-3.046-.73a1.607 1.607 0 0 0-.617-.143c-.75 0-1.325.61-1.325 1.278 0 1.279 2.185 1.766 3.245 1.968l-2.583 2.455c-.243.244-.397.568-.397.893 0 .69.574 1.278 1.324 1.278.353 0 .706-.122.95-.365l2.472-2.354 2.472 2.354c.242.243.595.365.949.365.75 0 1.324-.609 1.324-1.278 0-.325-.154-.65-.397-.893L25.8 28.568c1.06-.202 3.245-.73 3.245-1.988 0-.67-.574-1.278-1.324-1.278-.22 0-.42.061-.619.163M24.036 16.599c-2.583 0-4.525 2.008-4.525 4.321 0 2.313 1.942 4.321 4.525 4.321 2.582 0 4.524-2.008 4.524-4.32 0-2.314-1.942-4.322-4.524-4.322zm0 6.106c-1.06 0-1.877-.832-1.877-1.785s.817-1.785 1.877-1.785c1.059 0 1.876.832 1.876 1.785s-.817 1.785-1.876 1.785z"/>
        </g>
    </g>
</svg>
