<svg xmlns="http://www.w3.org/2000/svg" xmlns:xlink="http://www.w3.org/1999/xlink" width="48" height="49" viewBox="0 0 48 49">
    <defs>
        <ellipse id="a" cx="24" cy="24.393" rx="24" ry="24.393"/>
        <mask id="b" width="48" height="48.787" x="0" y="0" fill="#fff">
            <use xlink:href="#a"/>
        </mask>
    </defs>
    <g fill="none" fill-rule="evenodd">
        <use stroke="#74A3C7" stroke-width="2.4" mask="url(#b)" xlink:href="#a"/>
        <path fill="#74A3C7" d="M30.758 20.308a3.282 3.282 0 0 0 1.517-1.77 7.331 7.331 0 0 1-2.189.774 3.539 3.539 0 0 0-2.492-1.017c-1.906 0-3.445 1.444-3.445 3.232 0 .244.022.488.086.732-2.752-.142-5.33-1.362-7.086-3.374a3.087 3.087 0 0 0-.455 1.626c0 1.077.563 2.073 1.538 2.683a3.672 3.672 0 0 1-1.56-.406v.04c-.043 1.525 1.148 2.846 2.752 3.151a3.492 3.492 0 0 1-1.56.061c.455 1.301 1.755 2.216 3.207 2.236a7.184 7.184 0 0 1-4.269 1.382c-.26 0-.542-.02-.802-.04a10.306 10.306 0 0 0 5.266 1.443c3.966 0 7.303-2.012 8.907-5.428.542-1.178.867-2.46.867-3.74 0-.142 0-.285-.022-.427A6.464 6.464 0 0 0 32.73 19.8a6.53 6.53 0 0 1-1.972.509z"/>
    </g>
</svg>
