<svg xmlns="http://www.w3.org/2000/svg" xmlns:xlink="http://www.w3.org/1999/xlink" width="48" height="49" viewBox="0 0 48 49">
    <defs>
        <ellipse id="a" cx="24" cy="24.393" rx="24" ry="24.393"/>
        <mask id="b" width="48" height="48.787" x="0" y="0" fill="#fff">
            <use xlink:href="#a"/>
        </mask>
    </defs>
    <g fill="none" fill-rule="evenodd">
        <use stroke="#74A3C7" stroke-width="2.4" mask="url(#b)" xlink:href="#a"/>
        <path fill="#74A3C7" d="M32.807 20.93s-.176-1.195-.715-1.72c-.683-.69-1.45-.694-1.8-.735-2.515-.175-6.288-.175-6.288-.175h-.008s-3.772 0-6.288.175c-.35.04-1.117.044-1.8.734-.54.526-.715 1.72-.715 1.72s-.18 1.402-.18 2.805v1.314c0 1.402.18 2.804.18 2.804s.176 1.195.715 1.72c.683.69 1.581.669 1.981.741 1.438.133 6.111.174 6.111.174s3.777-.005 6.292-.18c.35-.041 1.117-.045 1.8-.735.54-.525.715-1.72.715-1.72s.18-1.402.18-2.804v-1.314c0-1.403-.18-2.805-.18-2.805zM22.145 26.64l-.001-4.868L27 24.215l-4.855 2.426z"/>
    </g>
</svg>
